<svg width="106" height="32" viewBox="0 0 106 32" fill="none" xmlns="http://www.w3.org/2000/svg">
<path d="M18.2045 7.54545L12.1023 25H6.64773L0.545455 7.54545H5.65909L9.28409 20.0341H9.46591L13.0795 7.54545H18.2045ZM20.6818 25V7.54545H25.5227V25H20.6818ZM23.1136 5.29545C22.3939 5.29545 21.7765 5.05682 21.2614 4.57954C20.7538 4.0947 20.5 3.51515 20.5 2.84091C20.5 2.17424 20.7538 1.60227 21.2614 1.125C21.7765 0.640151 22.3939 0.397726 23.1136 0.397726C23.8333 0.397726 24.447 0.640151 24.9545 1.125C25.4697 1.60227 25.7273 2.17424 25.7273 2.84091C25.7273 3.51515 25.4697 4.0947 24.9545 4.57954C24.447 5.05682 23.8333 5.29545 23.1136 5.29545ZM38.6847 7.54545V11.1818H28.1733V7.54545H38.6847ZM30.5597 3.36364H35.4006V19.6364C35.4006 20.0833 35.4688 20.4318 35.6051 20.6818C35.7415 20.9242 35.9309 21.0947 36.1733 21.1932C36.4233 21.2917 36.7112 21.3409 37.0369 21.3409C37.2642 21.3409 37.4915 21.322 37.7188 21.2841C37.946 21.2386 38.1203 21.2045 38.2415 21.1818L39.0028 24.7841C38.7604 24.8598 38.4195 24.947 37.9801 25.0455C37.5407 25.1515 37.0066 25.2159 36.3778 25.2386C35.2112 25.2841 34.1884 25.1288 33.3097 24.7727C32.4384 24.4167 31.7604 23.8636 31.2756 23.1136C30.7907 22.3636 30.5521 21.4167 30.5597 20.2727V3.36364ZM49.5369 25.3409C47.7718 25.3409 46.2453 24.9659 44.9574 24.2159C43.6771 23.4583 42.6884 22.4053 41.9915 21.0568C41.2945 19.7008 40.946 18.1288 40.946 16.3409C40.946 14.5379 41.2945 12.9621 41.9915 11.6136C42.6884 10.2576 43.6771 9.20454 44.9574 8.45454C46.2453 7.69697 47.7718 7.31818 49.5369 7.31818C51.3021 7.31818 52.8248 7.69697 54.1051 8.45454C55.393 9.20454 56.3854 10.2576 57.0824 11.6136C57.7794 12.9621 58.1278 14.5379 58.1278 16.3409C58.1278 18.1288 57.7794 19.7008 57.0824 21.0568C56.3854 22.4053 55.393 23.4583 54.1051 24.2159C52.8248 24.9659 51.3021 25.3409 49.5369 25.3409ZM49.5597 21.5909C50.3627 21.5909 51.0331 21.3636 51.571 20.9091C52.1089 20.447 52.5142 19.8182 52.7869 19.0227C53.0672 18.2273 53.2074 17.322 53.2074 16.3068C53.2074 15.2917 53.0672 14.3864 52.7869 13.5909C52.5142 12.7955 52.1089 12.1667 51.571 11.7045C51.0331 11.2424 50.3627 11.0114 49.5597 11.0114C48.7491 11.0114 48.0672 11.2424 47.5142 11.7045C46.9688 12.1667 46.5559 12.7955 46.2756 13.5909C46.0028 14.3864 45.8665 15.2917 45.8665 16.3068C45.8665 17.322 46.0028 18.2273 46.2756 19.0227C46.5559 19.8182 46.9688 20.447 47.5142 20.9091C48.0672 21.3636 48.7491 21.5909 49.5597 21.5909ZM61.2756 25V7.54545H65.9688V10.5909H66.1506C66.4688 9.50758 67.0028 8.68939 67.7528 8.13636C68.5028 7.57576 69.3665 7.29545 70.3438 7.29545C70.5862 7.29545 70.8475 7.31061 71.1278 7.34091C71.4081 7.37121 71.6544 7.41288 71.8665 7.46591V11.7614C71.6392 11.6932 71.3248 11.6326 70.9233 11.5795C70.5218 11.5265 70.1544 11.5 69.821 11.5C69.1089 11.5 68.4725 11.6553 67.9119 11.9659C67.3589 12.2689 66.9195 12.6932 66.5938 13.2386C66.2756 13.7841 66.1165 14.4129 66.1165 15.125V25H61.2756ZM75.1989 25.2955C74.4489 25.2955 73.8049 25.0303 73.267 24.5C72.7367 23.9621 72.4716 23.3182 72.4716 22.5682C72.4716 21.8258 72.7367 21.1894 73.267 20.6591C73.8049 20.1288 74.4489 19.8636 75.1989 19.8636C75.9261 19.8636 76.5625 20.1288 77.108 20.6591C77.6534 21.1894 77.9261 21.8258 77.9261 22.5682C77.9261 23.0682 77.7973 23.5265 77.5398 23.9432C77.2898 24.3523 76.9602 24.6818 76.5511 24.9318C76.142 25.1742 75.6913 25.2955 75.1989 25.2955ZM81.9006 7.54545H86.7415V25.8636C86.7415 27.2121 86.4763 28.303 85.946 29.1364C85.4157 29.9697 84.6544 30.5795 83.6619 30.9659C82.6771 31.3523 81.4991 31.5455 80.1278 31.5455C79.9612 31.5455 79.8021 31.5417 79.6506 31.5341C79.4915 31.5341 79.3248 31.5303 79.1506 31.5227V27.7386C79.2794 27.7462 79.393 27.75 79.4915 27.75C79.5824 27.7576 79.6809 27.7614 79.7869 27.7614C80.5672 27.7614 81.1127 27.5947 81.4233 27.2614C81.7415 26.9356 81.9006 26.4432 81.9006 25.7841V7.54545ZM84.3097 5.29545C83.5975 5.29545 82.9839 5.05682 82.4688 4.57954C81.9536 4.0947 81.696 3.51515 81.696 2.84091C81.696 2.17424 81.9536 1.60227 82.4688 1.125C82.9839 0.640151 83.5975 0.397726 84.3097 0.397726C85.0369 0.397726 85.6544 0.640151 86.1619 1.125C86.6771 1.60227 86.9347 2.17424 86.9347 2.84091C86.9347 3.51515 86.6771 4.0947 86.1619 4.57954C85.6544 5.05682 85.0369 5.29545 84.3097 5.29545ZM105.142 12.5227L100.71 12.7955C100.634 12.4167 100.472 12.0758 100.222 11.7727C99.9716 11.4621 99.642 11.2159 99.233 11.0341C98.8314 10.8447 98.3504 10.75 97.7898 10.75C97.0398 10.75 96.4072 10.9091 95.892 11.2273C95.3769 11.5379 95.1193 11.9545 95.1193 12.4773C95.1193 12.8939 95.286 13.2462 95.6193 13.5341C95.9527 13.822 96.5246 14.053 97.3352 14.2273L100.494 14.8636C102.191 15.2121 103.456 15.7727 104.29 16.5455C105.123 17.3182 105.54 18.3333 105.54 19.5909C105.54 20.7348 105.203 21.7386 104.528 22.6023C103.862 23.4659 102.945 24.1402 101.778 24.625C100.619 25.1023 99.2822 25.3409 97.767 25.3409C95.4564 25.3409 93.6155 24.8598 92.2443 23.8977C90.8807 22.928 90.0814 21.6098 89.8466 19.9432L94.608 19.6932C94.7519 20.3977 95.1004 20.9356 95.6534 21.3068C96.2064 21.6705 96.9148 21.8523 97.7784 21.8523C98.6269 21.8523 99.3087 21.6894 99.8239 21.3636C100.347 21.0303 100.612 20.6023 100.619 20.0795C100.612 19.6402 100.426 19.2803 100.062 19C99.6989 18.7121 99.1383 18.4924 98.3807 18.3409L95.358 17.7386C93.6534 17.3977 92.3845 16.8068 91.5511 15.9659C90.7254 15.125 90.3125 14.053 90.3125 12.75C90.3125 11.6288 90.6155 10.6629 91.2216 9.85227C91.8352 9.04167 92.6951 8.41667 93.8011 7.97727C94.9148 7.53788 96.2178 7.31818 97.7102 7.31818C99.9148 7.31818 101.65 7.78409 102.915 8.71591C104.188 9.64773 104.93 10.9167 105.142 12.5227Z" fill="#00a884"/>
</svg>
