<svg width="80" height="24" viewBox="0 0 80 24" fill="none" xmlns="http://www.w3.org/2000/svg">
<path d="M13.6534 5.90909L9.0767 19H4.9858L0.409091 5.90909H4.24432L6.96307 15.2756H7.09943L9.80966 5.90909H13.6534ZM15.5114 19V5.90909H19.142V19H15.5114ZM17.3352 4.22159C16.7955 4.22159 16.3324 4.04261 15.946 3.68466C15.5653 3.32102 15.375 2.88636 15.375 2.38068C15.375 1.88068 15.5653 1.4517 15.946 1.09375C16.3324 0.730113 16.7955 0.548295 17.3352 0.548295C17.875 0.548295 18.3352 0.730113 18.7159 1.09375C19.1023 1.4517 19.2955 1.88068 19.2955 2.38068C19.2955 2.88636 19.1023 3.32102 18.7159 3.68466C18.3352 4.04261 17.875 4.22159 17.3352 4.22159ZM29.0135 5.90909V8.63636H21.13V5.90909H29.0135ZM22.9197 2.77273H26.5504V14.9773C26.5504 15.3125 26.6016 15.5739 26.7038 15.7614C26.8061 15.9432 26.9482 16.071 27.13 16.1449C27.3175 16.2187 27.5334 16.2557 27.7777 16.2557C27.9482 16.2557 28.1186 16.2415 28.2891 16.2131C28.4595 16.179 28.5902 16.1534 28.6811 16.1364L29.2521 18.8381C29.0703 18.8949 28.8146 18.9602 28.4851 19.0341C28.1555 19.1136 27.755 19.1619 27.2834 19.179C26.4084 19.2131 25.6413 19.0966 24.9822 18.8295C24.3288 18.5625 23.8203 18.1477 23.4567 17.5852C23.093 17.0227 22.9141 16.3125 22.9197 15.4545V2.77273ZM37.1527 19.2557C35.8288 19.2557 34.6839 18.9744 33.718 18.4119C32.7578 17.8437 32.0163 17.054 31.4936 16.0426C30.9709 15.0256 30.7095 13.8466 30.7095 12.5057C30.7095 11.1534 30.9709 9.97159 31.4936 8.96023C32.0163 7.94318 32.7578 7.15341 33.718 6.59091C34.6839 6.02273 35.8288 5.73864 37.1527 5.73864C38.4766 5.73864 39.6186 6.02273 40.5788 6.59091C41.5447 7.15341 42.2891 7.94318 42.8118 8.96023C43.3345 9.97159 43.5959 11.1534 43.5959 12.5057C43.5959 13.8466 43.3345 15.0256 42.8118 16.0426C42.2891 17.054 41.5447 17.8437 40.5788 18.4119C39.6186 18.9744 38.4766 19.2557 37.1527 19.2557ZM37.1697 16.4432C37.772 16.4432 38.2749 16.2727 38.6783 15.9318C39.0817 15.5852 39.3857 15.1136 39.5902 14.517C39.8004 13.9205 39.9055 13.2415 39.9055 12.4801C39.9055 11.7188 39.8004 11.0398 39.5902 10.4432C39.3857 9.84659 39.0817 9.375 38.6783 9.02841C38.2749 8.68182 37.772 8.50852 37.1697 8.50852C36.5618 8.50852 36.0504 8.68182 35.6357 9.02841C35.2266 9.375 34.9169 9.84659 34.7067 10.4432C34.5021 11.0398 34.3999 11.7188 34.3999 12.4801C34.3999 13.2415 34.5021 13.9205 34.7067 14.517C34.9169 15.1136 35.2266 15.5852 35.6357 15.9318C36.0504 16.2727 36.5618 16.4432 37.1697 16.4432ZM45.9567 19V5.90909H49.4766V8.19318H49.6129C49.8516 7.38068 50.2521 6.76705 50.8146 6.35227C51.3771 5.93182 52.0249 5.72159 52.7578 5.72159C52.9396 5.72159 53.1357 5.73295 53.3459 5.75568C53.5561 5.77841 53.7408 5.80966 53.8999 5.84943V9.07102C53.7294 9.01989 53.4936 8.97443 53.1925 8.93466C52.8913 8.89489 52.6158 8.875 52.3658 8.875C51.8317 8.875 51.3544 8.99148 50.9339 9.22443C50.5192 9.4517 50.1896 9.76989 49.9453 10.179C49.7067 10.5881 49.5874 11.0597 49.5874 11.5938V19H45.9567ZM56.3991 19.2216C55.8366 19.2216 55.3537 19.0227 54.9503 18.625C54.5526 18.2216 54.3537 17.7386 54.3537 17.1761C54.3537 16.6193 54.5526 16.142 54.9503 15.7443C55.3537 15.3466 55.8366 15.1477 56.3991 15.1477C56.9446 15.1477 57.4219 15.3466 57.831 15.7443C58.2401 16.142 58.4446 16.6193 58.4446 17.1761C58.4446 17.5511 58.348 17.8949 58.1548 18.2074C57.9673 18.5142 57.7202 18.7614 57.4134 18.9489C57.1065 19.1307 56.7685 19.2216 56.3991 19.2216ZM61.4254 5.90909H65.0561V19.6477C65.0561 20.6591 64.8572 21.4773 64.4595 22.1023C64.0618 22.7273 63.4908 23.1847 62.7464 23.4744C62.0078 23.7642 61.1243 23.9091 60.0959 23.9091C59.9709 23.9091 59.8516 23.9063 59.7379 23.9006C59.6186 23.9006 59.4936 23.8977 59.3629 23.892V21.054C59.4595 21.0597 59.5447 21.0625 59.6186 21.0625C59.6868 21.0682 59.7607 21.071 59.8402 21.071C60.4254 21.071 60.8345 20.946 61.0675 20.696C61.3061 20.4517 61.4254 20.0824 61.4254 19.5881V5.90909ZM63.2322 4.22159C62.6982 4.22159 62.2379 4.04261 61.8516 3.68466C61.4652 3.32102 61.272 2.88636 61.272 2.38068C61.272 1.88068 61.4652 1.4517 61.8516 1.09375C62.2379 0.730113 62.6982 0.548295 63.2322 0.548295C63.7777 0.548295 64.2408 0.730113 64.6214 1.09375C65.0078 1.4517 65.201 1.88068 65.201 2.38068C65.201 2.88636 65.0078 3.32102 64.6214 3.68466C64.2408 4.04261 63.7777 4.22159 63.2322 4.22159ZM78.8565 9.64205L75.5327 9.84659C75.4759 9.5625 75.3537 9.30682 75.1662 9.07955C74.9787 8.84659 74.7315 8.66193 74.4247 8.52557C74.1236 8.38352 73.7628 8.3125 73.3423 8.3125C72.7798 8.3125 72.3054 8.43182 71.919 8.67045C71.5327 8.90341 71.3395 9.21591 71.3395 9.60795C71.3395 9.92045 71.4645 10.1847 71.7145 10.4006C71.9645 10.6165 72.3935 10.7898 73.0014 10.9205L75.3707 11.3977C76.6435 11.6591 77.5923 12.0795 78.2173 12.6591C78.8423 13.2386 79.1548 14 79.1548 14.9432C79.1548 15.8011 78.902 16.554 78.3963 17.2017C77.8963 17.8494 77.2088 18.3551 76.3338 18.7188C75.4645 19.0767 74.4616 19.2557 73.3253 19.2557C71.5923 19.2557 70.2116 18.8949 69.1832 18.1733C68.1605 17.446 67.5611 16.4574 67.3849 15.2074L70.956 15.0199C71.0639 15.5483 71.3253 15.9517 71.7401 16.2301C72.1548 16.5028 72.6861 16.6392 73.3338 16.6392C73.9702 16.6392 74.4815 16.517 74.8679 16.2727C75.2599 16.0227 75.4588 15.7017 75.4645 15.3097C75.4588 14.9801 75.3196 14.7102 75.0469 14.5C74.7741 14.2841 74.3537 14.1193 73.7855 14.0057L71.5185 13.554C70.2401 13.2983 69.2884 12.8551 68.6634 12.2244C68.044 11.5937 67.7344 10.7898 67.7344 9.8125C67.7344 8.97159 67.9616 8.24716 68.4162 7.6392C68.8764 7.03125 69.5213 6.5625 70.3509 6.23295C71.1861 5.90341 72.1634 5.73864 73.2827 5.73864C74.9361 5.73864 76.2372 6.08807 77.1861 6.78693C78.1406 7.4858 78.6974 8.4375 78.8565 9.64205Z" fill="#00C298"/>
</svg>
